<?xml version="1.0" encoding="UTF-8"?>
<svg xmlns="http://www.w3.org/2000/svg" width="256" height="256" viewBox="0 0 256 256" version="1.1">
  <title>NemoVCS</title>
  <defs>
    <linearGradient id="folder" x1="48" y1="58" x2="208" y2="204" gradientUnits="userSpaceOnUse">
      <stop offset="0" stop-color="#ffd66b"/>
      <stop offset="1" stop-color="#e5a72e"/>
    </linearGradient>
    <linearGradient id="panel" x1="44" y1="78" x2="216" y2="202" gradientUnits="userSpaceOnUse">
      <stop offset="0" stop-color="#315a73"/>
      <stop offset="1" stop-color="#1b3346"/>
    </linearGradient>
  </defs>
  <rect x="18" y="18" width="220" height="220" rx="42" fill="#122536"/>
  <path d="M36 78c0-12 10-22 22-22h42c8 0 15 4 19 10l12 17h67c12 0 22 10 22 22v7H36z" fill="url(#folder)"/>
  <rect x="36" y="93" width="184" height="119" rx="20" fill="url(#panel)"/>
  <path d="M52 101h152c8 0 14 6 14 14v4H38v-4c0-8 6-14 14-14z" fill="#ffcf55" opacity=".88"/>
  <path d="M90 151v-32m0 32v34m0-34h61" fill="none" stroke="#f4f7fb" stroke-width="13" stroke-linecap="round" stroke-linejoin="round"/>
  <circle cx="90" cy="119" r="18" fill="#28c76f" stroke="#f4f7fb" stroke-width="8"/>
  <circle cx="90" cy="185" r="18" fill="#28c76f" stroke="#f4f7fb" stroke-width="8"/>
  <circle cx="151" cy="151" r="18" fill="#4aa3ff" stroke="#f4f7fb" stroke-width="8"/>
</svg>
